<svg xmlns="http://www.w3.org/2000/svg" width="159" height="28" viewBox="0 0 159 28"><g><g><g><g><path fill="#fff" d="M87.373 0c.795 0 1.487.154 2.077.463.334.18.641.411.898.668.205.206.333.463.462.72.05.077.076.103.128.103.102 0 .205-.154.256-.231.436-.515 1.026-.9 1.641-1.157a5.419 5.419 0 0 1 2.232-.463h.205c1.18.051 2.641.566 3.231 1.928a.141.141 0 0 0 .128.077c.052 0 .103-.051.129-.102l.205-.695c.205-.874.949-.977 1.897-.977h.513l.436.026c1.129.026 2.642.077 3.437 1.131a.194.194 0 0 0 .102.052h.026c.051 0 .077-.052.103-.077.076-.206.153-.412.333-.566.23-.231.564-.36.898-.36h.05l2.924.103c1.18.077 1.821 0 2.129.745.026.052.051.078.102.078h.026c.051 0 .077-.026.103-.052.256-.36.666-.591 1.102-.591h.052l.743.025c.95.026 1.924.026 2.744.36 1.052.412 1.796 1.337 1.873 2.366.025.977-.231 1.954-1 2.623-.026.025-.052.051-.052.102v.052l.616 1.285C142.51 9.462 159 12.933 159 16.918c0 5.863-35.595 10.62-79.5 10.62S0 22.78 0 16.917c0-4.036 16.746-7.533 41.443-9.333.077-.437.23-.9.564-1.157.359-.283.743-.283 1.18-.309l.538-.051c.41-.051.641-.283.718-.72l.718-3.368A1.284 1.284 0 0 1 46.366.9l1.54-.129h.05c.565 0 1.103.386 1.283.926.025.206.051.386 0 .617 0 .051.025.103.077.129h.05c.052 0 .078-.026.104-.052.41-.54.871-.925 1.333-1.208.692-.412 1.487-.694 2.334-.746h.308c1.282 0 2.718.489 3.282 1.697.026.052.077.103.128.103.052 0 .103-.051.129-.103l.153-.668A1.265 1.265 0 0 1 58.394.437l1.282-.051h.052c.615 0 1.077.257 1.333.72a.141.141 0 0 0 .128.077.141.141 0 0 0 .129-.077 1.327 1.327 0 0 1 1.154-.797l1.333-.052h.077c.205 0 .436.026.667.129.282.128.487.36.641.668a.141.141 0 0 0 .128.077.141.141 0 0 0 .128-.077c.206-.514.642-.823 1.18-.823l1.616-.025h.025c.488 0 .872.257 1.154.771a.141.141 0 0 0 .129.077.141.141 0 0 0 .128-.077c.077-.18.154-.334.308-.463.23-.205.538-.308.846-.308h1.564c.41 0 .77.18 1.026.463.282.334.333.77.257 1.157l-.975 4.55c.846 0 1.693-.025 2.539-.025a5.085 5.085 0 0 1-.103-.9c0-.386.052-.797.154-1.209a5.404 5.404 0 0 1 1.36-2.57C77.781.54 79.396.051 80.986.051c.308 0 .59.025.898.05.487.052 1 .104 1.36.438.23.206.384.488.435.797 0 .051.051.077.077.103h.051c.026 0 .052 0 .077-.026C84.783.617 85.835.13 86.86.051 87.014 0 87.22 0 87.373 0"/></g><g><path d="M65.832 16.172c-.59 1.876-.872 5.115 1.538 5.835 1.077.308 2.283.077 3.232-.489.974-.59 1.692-1.516 2.205-2.519.513-1.053.77-2.21.82-3.392.052-1.08-.127-2.314-1.05-3.033-.565-.437-1.283-.566-1.95-.566-2.41.026-4.129 2.005-4.795 4.164zm-1.026 7.638c-.975-.54-1.641-1.465-1.975-2.52-.333-1.08-.333-2.237-.205-3.368.128-1.157.487-2.288 1-3.342 1.026-2.057 2.796-3.806 5.001-4.551 1.103-.386 2.308-.515 3.462-.386 1.103.128 2.18.488 3 1.26 1.719 1.62 1.693 4.37 1.206 6.53-.513 2.237-1.744 4.32-3.642 5.657-1.385.952-3 1.466-4.616 1.466-1.103 0-2.257-.18-3.231-.746zm44.776.36c-1.077.026-2.18 0-3.231-.308-.333-.078-.513-.129-.513-.129l.462-2.391c1.513.488 3.282.823 4.847.257.666-.232 1.256-.694 1.436-1.414.077-.36.077-.746-.103-1.08-.18-.334-.564-.592-.872-.797-1.256-.823-2.975-1.234-3.667-2.7-.718-1.517-.077-3.188 1.103-4.242 1.41-1.286 3.385-1.62 5.231-1.466.872.077 1.719.231 2.565.411.026 0 .077.026.077.026l-.436 2.186c-.77-.232-1.539-.412-2.334-.463-.744-.052-1.59-.052-2.308.206-.692.23-1.385.745-1.385 1.542 0 .772.641 1.132 1.231 1.466 1.18.694 2.693 1.208 3.437 2.442.82 1.389.436 3.163-.513 4.371-1.18 1.543-3.18 2.032-5.027 2.083zM94.632 9.951l2.897.026-1.257 6.145 5.95-6.093 3.616.025-6.693 6.865 4.847 7.148-3.59.077-4.386-6.556-1.334 6.633-2.949.026zm-10.977 6.66c.667 0 1.282-.154 1.82-.54.514-.386.796-.926.975-1.517.154-.566.154-1.286-.205-1.774-.384-.515-1.103-.669-1.718-.669h-1.334c-.307 1.466-.59 2.983-.897 4.5h1.36zm-2.897-6.685h4.361c1.026 0 2.104.128 3.002.642.949.54 1.36 1.491 1.385 2.57a5.801 5.801 0 0 1-.795 3.06c-.54.9-1.386 1.542-2.335 1.953.872 2.031 1.719 4.062 2.591 6.118-1.103 0-2.206.026-3.31.026-.717-1.85-1.461-3.702-2.18-5.527-.282.026-.59.026-.872.026h-.718c-.36 1.85-.718 3.676-1.103 5.527-.95-.026-1.899-.026-2.873-.026.897-4.499 2.847-14.37 2.847-14.37zm-37.34.231l2.795-.026.436 10.44 4.77-10.517 2.95-.025.743 10.67 4.437-10.722 2.974-.026-6.462 14.065-3.18-.077-.744-10.208-4.642 10.08-3.051-.052z"/></g><g><path fill="#c00" d="M115.634 14.889c-.025 0-.051.025 0 .051.718.488 1.36 1.028 1.744 1.697a5 5 0 0 1 .718 2.34c22.132-.412 36.93-1.157 36.93-2.032 0-.9-15.927-1.67-39.392-2.056z"/></g><g><path fill="#c00" d="M3.95 16.946c0 .874 15.055 1.62 37.468 2.031l-.307-4.062c-22.235.411-37.16 1.157-37.16 2.03z"/></g><g><g><path fill="#c00" d="M45.726 5.785c-.102.617-.256 1.26-.923 1.466-.539.18-1.103.103-1.641 0-.052.36-.129.72-.18 1.105.205 0 .436.078.641.078h.616c.667-.026 1.359-.18 1.872-.643.513-.463.795-1.132.923-1.8.257-1.389.487-2.777.744-4.165-.436.025-.898.051-1.334.051a74.12 74.12 0 0 0-.718 3.908z"/></g><g><path fill="#c00" d="M62.037 3.779l-2.898.077c.154-.823.308-1.646.487-2.468-.436.025-.897.025-1.333.051-.41 2.108-.821 4.242-1.206 6.376.436-.025.898-.025 1.334-.05.18-.9.359-1.826.513-2.726l2.898-.078c-.18.9-.36 1.826-.539 2.726.436 0 .898-.026 1.334-.026.41-2.108.846-4.242 1.256-6.35-.436 0-.897.025-1.333.025-.18.797-.334 1.62-.513 2.443z"/></g><g><path fill="#c00" d="M69.808 5.76a509.822 509.822 0 0 0-1.641-4.577c-.539 0-1.052.025-1.59.025-.436 2.109-.847 4.243-1.283 6.351.436 0 .847-.026 1.283-.026.307-1.517.615-3.06.923-4.576.538 1.517 1.102 3.034 1.641 4.55.513 0 1.051-.025 1.564-.025.436-2.108.872-4.217 1.334-6.35h-1.282c-.308 1.568-.641 3.11-.95 4.627z"/></g><g><path fill="#c00" d="M103.094 3.6c-.154.411-.436.746-.872.874-.41.129-.897.052-1.333.026.18-.72.359-1.414.538-2.134.41 0 .923-.052 1.308.128.462.206.513.695.359 1.106zm1.026-1.697c-.308-.257-.718-.386-1.129-.411-.871-.103-1.743-.077-2.615-.103-.513 2.082-1.026 4.19-1.54 6.273.437 0 .847.026 1.283.026.18-.745.36-1.491.564-2.262.872.025 1.796.128 2.616-.309.77-.411 1.231-1.286 1.282-2.16-.025-.36-.128-.771-.461-1.054z"/></g><g><path fill="#c00" d="M105.297 7.868l4.052.154c.103-.36.18-.694.282-1.054-.897-.026-1.82-.077-2.718-.103.128-.54.282-1.08.41-1.62a82.07 82.07 0 0 1 2.514.103c.102-.36.18-.694.282-1.054-.847-.026-1.693-.077-2.513-.103.128-.489.256-1.003.384-1.491.872.025 1.77.077 2.642.103.102-.36.18-.695.282-1.055-1.334-.051-2.667-.102-3.975-.154-.564 2.083-1.103 4.191-1.642 6.274z"/></g><g><path fill="#c00" d="M115.097 4.78c-.385.128-.797.05-1.182.025.18-.667.36-1.309.514-1.976.385.025.848-.026 1.207.18.36.205.386.641.257 1-.154.385-.41.668-.796.77zm.639.8a2.2 2.2 0 0 0 1.36-1.26c.23-.54.384-1.311-.052-1.8-.41-.488-1.129-.565-1.718-.591-.667-.026-1.308-.052-1.975-.077-.564 2.082-1.103 4.165-1.641 6.248.436.025.846.025 1.282.051.205-.797.436-1.594.641-2.391.256 0 .513.051.744.026.282.822.538 1.645.82 2.468l1.513.077c-.307-.9-.64-1.825-.974-2.751z"/></g><g><path fill="#c00" d="M54.184 4.86c-.23 1.03-.973 2.11-2.1 2.136-.487.026-.949-.18-1.153-.669-.231-.489-.18-1.107-.077-1.595.205-1.056.948-2.11 2.1-2.136h.077c.487 0 .922.206 1.127.669.205.463.154 1.08.026 1.595zm-1.407-3.344c-1.128.154-2.077.848-2.667 1.8-.564.925-.846 2.16-.564 3.24.128.514.436.976.897 1.233.462.258 1 .335 1.514.309 1.256-.051 2.41-.797 3.051-1.877.59-.977.872-2.417.436-3.497-.436-1.054-1.615-1.363-2.667-1.208z"/></g><g><path fill="#c00" d="M88.296 4.449c-.257 1.028-1.052 2.057-2.206 2.03-.487 0-.949-.23-1.128-.72-.205-.488-.128-1.105 0-1.619.256-1.054 1.026-2.057 2.205-2.031h.077c.488.026.923.257 1.103.72.154.514.077 1.131-.051 1.62zm-1.283-3.394c-1.128.102-2.128.745-2.744 1.697-.615.9-.923 2.134-.718 3.214.103.514.385 1.002.847 1.285.436.283 1 .386 1.513.386 1.256 0 2.436-.669 3.128-1.723.642-.951.975-2.365.59-3.471-.384-1.131-1.564-1.491-2.616-1.388z"/></g><g><path fill="#c00" d="M96.094 4.576c-.283 1.028-1.078 2.031-2.232 2.005-.487 0-.948-.231-1.128-.72-.205-.488-.128-1.105 0-1.62.256-1.028 1.051-2.03 2.206-2.005h.076c.488.026.898.257 1.078.72.205.514.128 1.106 0 1.62zm-1.257-3.42c-1.128.103-2.129.746-2.77 1.646-.615.9-.949 2.108-.743 3.214.102.514.384 1.002.82 1.285.436.283.975.386 1.513.386 1.257.026 2.437-.643 3.129-1.697.641-.951 1-2.366.615-3.471-.333-1.08-1.513-1.44-2.564-1.363z"/></g><g><path fill="#c00" d="M79.398 1.26c-1 .334-1.82 1.08-2.257 2.057-.41.9-.64 2.108-.18 3.034.437.925 1.488 1.26 2.463 1.26.59 0 1.154-.078 1.718-.18.077-.36.154-.746.23-1.106a7.33 7.33 0 0 1-1.281.18c-.41.026-.847 0-1.231-.18-.795-.386-.821-1.363-.616-2.134.205-.823.82-1.62 1.59-1.903.744-.257 1.616-.18 2.334.052.077-.36.154-.72.23-1.106-.948-.283-2.025-.309-3 .026z"/></g></g></g></g></g></svg>