<svg id="Ebene_1" data-name="Ebene 1" xmlns="http://www.w3.org/2000/svg" viewBox="0 0 427 75"><defs><style>.cls-1{fill:#fff;}.cls-2{fill:#c00;}</style></defs><title>subbrand-logo-johncooperworks-space</title><g id="Page-1"><g id="subbrand-logo-johncooperworks"><path id="Background" class="cls-1" d="M234.6,0a11.3016,11.3016,0,0,1,5.6,1.3,10.76576,10.76576,0,0,1,2.4,1.8,5.92916,5.92916,0,0,1,1.2,2q.15.3.3.3c.3,0,.6-.4.7-.6a12.18064,12.18064,0,0,1,4.4-3.1,15.39723,15.39723,0,0,1,6-1.3h.6c3.2.1,7.1,1.5,8.7,5.2.1.1.2.2.3.2h0a.31929.31929,0,0,0,.3-.3l.6-1.9c.6-2.4,2.5-2.7,5.1-2.7h1.4l1.2.1c3,.1,7.1.2,9.2,3.1a.36737.36737,0,0,0,.3.1h.1c.1,0,.2-.1.3-.2a2.89963,2.89963,0,0,1,.9-1.5,3.492,3.492,0,0,1,2.4-1h.1l7.9.3c3.2.2,4.9,0,5.7,2,.1.1.1.2.3.2h.1c.1,0,.2-.1.3-.1a3.65715,3.65715,0,0,1,3-1.6h.1l2,.1c2.5.1,5.2.1,7.4,1a7.67982,7.67982,0,0,1,5,6.4,8.53931,8.53931,0,0,1-2.7,7.1c-.1.1-.1.1-.1.3v.1l1.7,3.5c65.5,5,109.8,14.4,109.8,25.2,0,15.9-95.6,28.8-213.5,28.8S0,61.8,0,45.9c0-11,45-20.4,111.3-25.3a4.81715,4.81715,0,0,1,1.5-3.1,4.55259,4.55259,0,0,1,3.2-.8l1.4-.1a2.06018,2.06018,0,0,0,1.9-2l1.9-9.1a3.39258,3.39258,0,0,1,3.2-2.9l4.1-.3h.1A3.54033,3.54033,0,0,1,132,4.8a4.84464,4.84464,0,0,1,0,1.7c0,.1.1.3.2.3h.1c.1,0,.2-.1.3-.1a12.30134,12.30134,0,0,1,3.6-3.3,13.75826,13.75826,0,0,1,6.3-2h.8c3.4,0,7.3,1.3,8.8,4.6.1.1.2.3.3.3h0a.3193.3193,0,0,0,.3-.3l.4-1.8a3.34929,3.34929,0,0,1,3.4-2.8l3.4-.1h.1a3.78375,3.78375,0,0,1,3.6,2c.1.1.2.2.3.2h0c.1,0,.3-.1.3-.2a3.61129,3.61129,0,0,1,3.1-2.2l3.6-.1h.2a5.66255,5.66255,0,0,1,1.8.3,3.339,3.339,0,0,1,1.7,1.8c.1.1.2.2.3.2h0c.1,0,.3-.1.3-.2A3.33335,3.33335,0,0,1,178.4.9l4.3-.1h.1a3.50121,3.50121,0,0,1,3.1,2.1c.1.1.2.2.3.2h0c.1,0,.3-.1.3-.2a3.52815,3.52815,0,0,1,.8-1.3,3.09411,3.09411,0,0,1,2.3-.8h4.2a3.72061,3.72061,0,0,1,2.8,1.3,3.55971,3.55971,0,0,1,.7,3.1l-2.6,12.4c2.3,0,4.5-.1,6.8-.1a19.66887,19.66887,0,0,1-.3-2.4,12.93058,12.93058,0,0,1,.4-3.3,13.94811,13.94811,0,0,1,3.7-7c3-3.1,7.4-4.4,11.6-4.4.8,0,1.6.1,2.4.1A6.06851,6.06851,0,0,1,223,1.7a4.32138,4.32138,0,0,1,1.2,2.2c0,.1.1.2.2.3h.1c.1,0,.1,0,.2-.1a13.40979,13.40979,0,0,1,8-3.7,4.43551,4.43551,0,0,1,1.9-.4"/><path id="works" d="M119.4,64.5l-2.8-36.9,7.5-.1,1.2,28.3,12.8-28.5,7.9-.1,2,29,11.9-29.1,8-.1L150.5,65.2,142,65l-2-27.7L127.5,64.7ZM209.2,66c2.4-12.2,7.6-39,7.6-39h11.7a16.21609,16.21609,0,0,1,8.1,1.7,7.7225,7.7225,0,0,1,3.7,7,15.78928,15.78928,0,0,1-2.1,8.3,13.11468,13.11468,0,0,1-6.3,5.3c2.3,5.5,4.6,11,7,16.6-3,0-5.9.1-8.9.1-1.9-5-3.9-10-5.9-15a18.48416,18.48416,0,0,1-2.3.1h-1.9c-1,5-1.9,10-3,15C214.4,66,211.8,66,209.2,66ZM221,45.1h3.7a7.8943,7.8943,0,0,0,4.9-1.5,7.46809,7.46809,0,0,0,2.6-4.1,5.78135,5.78135,0,0,0-.6-4.8c-1-1.4-3-1.8-4.6-1.8h-3.6C222.6,36.8,221.8,41,221,45.1Zm25.4,20.7L254.2,27l7.8.1-3.4,16.7,16-16.5,9.7.1L266.3,46l13,19.4-9.6.2L257.9,47.8l-3.6,18Zm47.9-.2c5-.1,10.3-1.5,13.5-5.7,2.5-3.3,3.6-8.1,1.4-11.9-2-3.3-6.1-4.7-9.2-6.6-1.6-.9-3.3-1.9-3.3-4,0-2.2,1.9-3.6,3.7-4.2a16.199,16.199,0,0,1,6.2-.6,23.57833,23.57833,0,0,1,6.3,1.3l1.2-5.9a.34916.34916,0,0,0-.2-.1,52.21454,52.21454,0,0,0-6.9-1.1c-5-.4-10.3.5-14,4-3.2,2.9-4.9,7.4-3,11.5,1.9,4,6.5,5.1,9.8,7.3a6.93532,6.93532,0,0,1,2.3,2.2,4.19839,4.19839,0,0,1,.3,2.9,5.53261,5.53261,0,0,1-3.9,3.8c-4.2,1.5-9,.6-13-.7l-1.2,6.5s.5.1,1.4.3A22.60357,22.60357,0,0,0,294.3,65.6Zm-111.6,1a17.41175,17.41175,0,0,1-8.7-2,11.9791,11.9791,0,0,1-5.3-6.8,23.25246,23.25246,0,0,1-.6-9.1,27.2279,27.2279,0,0,1,2.7-9.1,24.64548,24.64548,0,0,1,13.4-12.4,21.054,21.054,0,0,1,9.3-1,13.431,13.431,0,0,1,8.1,3.4c4.6,4.4,4.5,11.9,3.2,17.7A26.01167,26.01167,0,0,1,195,62.7,20.91283,20.91283,0,0,1,182.7,66.6Zm7-34c-6.5.1-11.1,5.4-12.9,11.3-1.6,5.1-2.3,13.9,4.1,15.8a11.55691,11.55691,0,0,0,8.7-1.3,16.90716,16.90716,0,0,0,5.9-6.8,22.60682,22.60682,0,0,0,2.2-9.2c.1-2.9-.3-6.3-2.8-8.2A7.66275,7.66275,0,0,0,189.7,32.6Z"/><path id="Red-Stripes" class="cls-2" d="M310.5,40.4c63,1,105.8,3.1,105.8,5.6,0,2.4-39.7,4.4-99.2,5.5a14.42592,14.42592,0,0,0-1.9-6.4,14.77763,14.77763,0,0,0-4.7-4.6C310.4,40.5,310.5,40.4,310.5,40.4ZM10.6,46c0-2.4,40.1-4.4,99.8-5.5l.8,11C51,50.4,10.6,48.4,10.6,46Z"/><path id="John-Cooper" class="cls-2" d="M122.8,15.7c.6-3.5,1.2-7,1.9-10.6,1.2,0,2.4-.1,3.6-.1-.7,3.8-1.3,7.5-2,11.3a8.5822,8.5822,0,0,1-2.5,4.9,7.09269,7.09269,0,0,1-5,1.7h-1.7c-.6,0-1.2-.2-1.7-.2.1-1,.3-2,.5-3a8.21668,8.21668,0,0,0,4.4,0C122.1,19.1,122.5,17.4,122.8,15.7Zm43.8-5.4c.5-2.2.9-4.5,1.4-6.6,1.2,0,2.4-.1,3.6-.1-1.1,5.7-2.3,11.5-3.4,17.2-1.2,0-2.4.1-3.6.1.5-2.4,1-5,1.4-7.4-2.6.1-5.2.1-7.8.2-.4,2.4-.9,5-1.4,7.4-1.2.1-2.4.1-3.6.1,1-5.8,2.1-11.6,3.2-17.3,1.2-.1,2.4-.1,3.6-.1-.5,2.2-.9,4.5-1.3,6.7C161.4,10.4,164,10.3,166.6,10.3Zm20.9,5.3c.8-4.1,1.7-8.3,2.5-12.6h3.4c-1.2,5.8-2.4,11.5-3.6,17.2-1.4,0-2.8.1-4.2.1-1.4-4.1-3-8.2-4.4-12.4-.8,4.1-1.7,8.3-2.5,12.4-1.2,0-2.3.1-3.4.1,1.2-5.7,2.3-11.5,3.4-17.2,1.4,0,2.8-.1,4.3-.1C184.6,7.4,186,11.5,187.5,15.6ZM279.6,5.2a3.7812,3.7812,0,0,1,1.2,2.9,7.30418,7.30418,0,0,1-3.4,5.9c-2.2,1.2-4.7.9-7,.8-.6,2.1-1,4.1-1.5,6.1-1.2,0-2.3-.1-3.4-.1,1.4-5.7,2.8-11.4,4.1-17,2.3.1,4.7,0,7,.3A4.6174,4.6174,0,0,1,279.6,5.2Zm-2.7,4.6a2.21407,2.21407,0,0,0-1-3c-1-.5-2.4-.3-3.5-.3-.5,2-1,3.8-1.4,5.8a8.69375,8.69375,0,0,0,3.6-.1A4.18489,4.18489,0,0,0,276.9,9.8Zm5.9,11.6c1.4-5.7,2.9-11.4,4.4-17,3.5.1,7.1.3,10.7.4-.3,1-.5,1.9-.8,2.9-2.3-.1-4.8-.2-7.1-.3-.3,1.3-.7,2.7-1,4,2.2.1,4.5.2,6.7.3-.3,1-.5,1.9-.8,2.9-2.3-.1-4.5-.2-6.7-.3-.3,1.5-.8,2.9-1.1,4.4,2.4.1,4.9.2,7.3.3-.3,1-.5,1.9-.8,2.9C290,21.6,286.4,21.5,282.8,21.4Zm28-6.3c.9,2.5,1.8,5,2.6,7.5-1.4-.1-2.7-.1-4.1-.2-.8-2.2-1.4-4.5-2.2-6.7a14.08385,14.08385,0,0,1-2-.1c-.6,2.2-1.2,4.3-1.7,6.5-1.2-.1-2.3-.1-3.4-.1,1.4-5.7,2.9-11.3,4.4-17,1.8.1,3.5.1,5.3.2,1.6.1,3.5.3,4.6,1.6,1.2,1.3.8,3.4.1,4.9A5.32642,5.32642,0,0,1,310.8,15.1ZM309.1,13a3.15212,3.15212,0,0,0,2.1-2.1c.3-1,.3-2.2-.7-2.7-1-.6-2.2-.4-3.2-.5-.4,1.8-.9,3.6-1.4,5.4A11.32883,11.32883,0,0,0,309.1,13ZM141.7,4.1c2.8-.4,6,.4,7.2,3.3s.4,6.8-1.2,9.5a10.1038,10.1038,0,0,1-8.2,5.1,7.38175,7.38175,0,0,1-4.1-.8,5.33754,5.33754,0,0,1-2.4-3.3,11.81625,11.81625,0,0,1,1.5-8.8A10.22585,10.22585,0,0,1,141.7,4.1Zm3.8,9.1a6.98165,6.98165,0,0,0-.1-4.3,3.04237,3.04237,0,0,0-3-1.8h-.2c-3.1.1-5.1,2.9-5.6,5.8a7.03865,7.03865,0,0,0,.2,4.3,3.03386,3.03386,0,0,0,3.1,1.8C142.9,18.9,144.9,16,145.5,13.2ZM233.7,2.9c2.8-.3,6,.7,7,3.8,1,3,.1,6.8-1.6,9.4a10.07536,10.07536,0,0,1-8.4,4.7,8.29713,8.29713,0,0,1-4.1-1,5.60819,5.60819,0,0,1-2.3-3.5,12.13978,12.13978,0,0,1,1.9-8.7A9.82088,9.82088,0,0,1,233.7,2.9Zm3.4,9.2a8.1989,8.1989,0,0,0,.1-4.4,3.275,3.275,0,0,0-3-2H234c-3.2-.1-5.2,2.7-5.9,5.5-.3,1.4-.6,3.1,0,4.4a3.12644,3.12644,0,0,0,3,2C234.3,17.7,236.4,14.9,237.1,12.1Zm17.6-9c2.8-.2,6,.8,6.9,3.7,1,3,.1,6.8-1.7,9.4a9.74925,9.74925,0,0,1-8.4,4.6,8.29713,8.29713,0,0,1-4.1-1,5.23205,5.23205,0,0,1-2.2-3.5,11.62518,11.62518,0,0,1,2-8.7A10.99855,10.99855,0,0,1,254.7,3.1Zm3.4,9.3a7.33917,7.33917,0,0,0,0-4.4,3.139,3.139,0,0,0-2.9-2H255c-3.1-.1-5.2,2.7-5.9,5.4-.3,1.4-.6,3.1,0,4.4a3.12644,3.12644,0,0,0,3,2C255.2,17.9,257.3,15.2,258.1,12.4Zm-44.9-9a13.97183,13.97183,0,0,1,8.1-.1q-.3,1.5-.6,3a10.41151,10.41151,0,0,0-6.3-.1,7.57918,7.57918,0,0,0-4.3,5.2c-.6,2.1-.5,4.7,1.7,5.8a6.21936,6.21936,0,0,0,3.3.5,19.93116,19.93116,0,0,0,3.4-.5q-.3,1.5-.6,3a23.14763,23.14763,0,0,1-4.6.5c-2.6,0-5.4-.9-6.6-3.4s-.6-5.8.5-8.2A9.93586,9.93586,0,0,1,213.2,3.4Z"/></g></g></svg>