<?xml version="1.0" encoding="UTF-8" standalone="no"?>
<!-- Created with Inkscape (http://www.inkscape.org/) -->

<svg
   xmlns:dc="http://purl.org/dc/elements/1.1/"
   xmlns:cc="http://creativecommons.org/ns#"
   xmlns:rdf="http://www.w3.org/1999/02/22-rdf-syntax-ns#"
   xmlns:svg="http://www.w3.org/2000/svg"
   xmlns="http://www.w3.org/2000/svg"
   xmlns:sodipodi="http://sodipodi.sourceforge.net/DTD/sodipodi-0.dtd"
   xmlns:inkscape="http://www.inkscape.org/namespaces/inkscape"
   width="496.17084"
   height="503.13339"
   id="svg2"
   version="1.1"
   inkscape:version="0.48.1 "
   sodipodi:docname="bomb.svg">
  <title
     id="title3840">bomb</title>
  <defs
     id="defs4">
    <inkscape:perspective
       sodipodi:type="inkscape:persp3d"
       inkscape:vp_x="0 : 526.18109 : 1"
       inkscape:vp_y="0 : 1000 : 0"
       inkscape:vp_z="744.09448 : 526.18109 : 1"
       inkscape:persp3d-origin="372.04724 : 350.78739 : 1"
       id="perspective2985" />
  </defs>
  <sodipodi:namedview
     id="base"
     pagecolor="#ffffff"
     bordercolor="#666666"
     borderopacity="1.0"
     inkscape:pageopacity="0.0"
     inkscape:pageshadow="2"
     inkscape:zoom="0.35"
     inkscape:cx="300.36036"
     inkscape:cy="230.0992"
     inkscape:document-units="px"
     inkscape:current-layer="layer1"
     showgrid="false"
     showguides="true"
     inkscape:guide-bbox="true"
     inkscape:window-width="1024"
     inkscape:window-height="546"
     inkscape:window-x="-4"
     inkscape:window-y="-4"
     inkscape:window-maximized="1"
     fit-margin-top="0"
     fit-margin-left="0"
     fit-margin-right="0"
     fit-margin-bottom="0" />
  <metadata
     id="metadata7">
    <rdf:RDF>
      <cc:Work
         rdf:about="">
        <dc:format>image/svg+xml</dc:format>
        <dc:type
           rdf:resource="http://purl.org/dc/dcmitype/StillImage" />
        <dc:title>bomb</dc:title>
        <dc:date>08-05-2011</dc:date>
        <dc:creator>
          <cc:Agent>
            <dc:title>Muhammad Haidar</dc:title>
          </cc:Agent>
        </dc:creator>
        <dc:language>English</dc:language>
        <dc:subject>
          <rdf:Bag>
            <rdf:li>bomb</rdf:li>
            <rdf:li>explode</rdf:li>
            <rdf:li>explosive</rdf:li>
          </rdf:Bag>
        </dc:subject>
        <dc:description>bomb has been set</dc:description>
        <cc:license
           rdf:resource="http://creativecommons.org/licenses/publicdomain/" />
      </cc:Work>
      <cc:License
         rdf:about="http://creativecommons.org/licenses/publicdomain/">
        <cc:permits
           rdf:resource="http://creativecommons.org/ns#Reproduction" />
        <cc:permits
           rdf:resource="http://creativecommons.org/ns#Distribution" />
        <cc:permits
           rdf:resource="http://creativecommons.org/ns#DerivativeWorks" />
      </cc:License>
    </rdf:RDF>
  </metadata>
  <g
     inkscape:label="Layer 1"
     inkscape:groupmode="layer"
     id="layer1"
     transform="translate(-157.14287,-106.37162)">
    <g
       style="font-size:22px;font-style:normal;font-weight:normal;text-align:start;line-height:125%;letter-spacing:0px;word-spacing:0px;text-anchor:start;fill:#000000;fill-opacity:1;stroke:none;font-family:Sans"
       id="flowRoot3001" />
    <g
       style="font-size:56px;font-style:normal;font-weight:normal;text-align:start;line-height:125%;letter-spacing:0px;word-spacing:0px;text-anchor:start;fill:#000000;fill-opacity:1;stroke:none;font-family:Sans"
       id="flowRoot3027" />
    <path
       style="fill:#000000;fill-opacity:1;stroke:none"
       d="m 488.57143,443.79074 c 0,91.52147 -74.19281,165.71428 -165.71428,165.71428 -91.52147,0 -165.71428,-74.19281 -165.71428,-165.71428 0,-91.52147 74.19281,-165.71428 165.71428,-165.71428 91.52147,0 165.71428,74.19281 165.71428,165.71428 z"
       id="path3047"
       inkscape:connector-curvature="0" />
    <path
       style="fill:#ffffff;fill-opacity:1;stroke:none"
       d="m 214.59996,367.42538 c -22.86183,40.54889 -36.76077,79.99866 -42.25892,76.89875 -5.49816,-3.0999 1.50682,-45.55532 24.36864,-86.10421 22.86183,-40.5489 58.98412,-63.83623 64.48227,-60.73633 5.49816,3.09991 -22.72002,28.38273 -45.58184,68.93163"
       id="path3049"
       inkscape:connector-curvature="0"
       sodipodi:nodetypes="csssc" />
    <path
       transform="matrix(0.59090909,0,0,1,146.38029,26.263966)"
       style="fill:#ffffff;fill-opacity:1;stroke:none"
       d="m 56.568542,435.66406 c 0,6.41576 -4.974868,11.61676 -11.111679,11.61676 -6.13681,0 -11.111678,-5.201 -11.111678,-11.61676 0,-6.41575 4.974868,-11.61675 11.111678,-11.61675 6.136811,0 11.111679,5.201 11.111679,11.61675 z"
       id="path3053"
       inkscape:connector-curvature="0" />
    <path
       style="fill:#000000;fill-opacity:1;stroke:none"
       d="m 367.04991,246.55987 27.52098,7.67612 c 9.14797,2.55154 14.45844,11.97029 11.9069,21.11826 l -3.83806,13.76049 c -2.55154,9.14796 -11.97027,14.45844 -21.11824,11.9069 l -27.52098,-7.67612 c -9.14797,-2.55154 -14.45845,-11.97028 -11.90691,-21.11825 l 3.83806,-13.76049 c 2.55155,-9.14796 11.97028,-14.45845 21.11825,-11.90691 z"
       id="rect3056"
       inkscape:connector-curvature="0" />
    <path
       transform="matrix(0.95949967,0.28170974,-0.28170974,0.95949967,85.715956,-91.430316)"
       style="fill:none;stroke:#ffffff;stroke-opacity:1"
       d="m 409.99999,254.50504 c 0,5.91733 -12.79187,10.71428 -28.57143,10.71428 -15.77957,0 -28.57143,-4.79695 -28.57143,-10.71428 0,-5.91734 12.79186,-10.71429 28.57143,-10.71429 15.77956,0 28.57143,4.79695 28.57143,10.71429 z"
       id="path3059"
       inkscape:connector-curvature="0" />
    <path
       style="fill:none;stroke:#000000;stroke-width:1px;stroke-linecap:butt;stroke-linejoin:miter;stroke-opacity:1"
       d="m 381.42857,263.79075 c 0,0 4.28572,-255.7142822 107.14286,-114.28571 102.85714,141.42857 128.57142,2.85715 128.57142,2.85715"
       id="path3831"
       inkscape:connector-curvature="0"
       sodipodi:nodetypes="csc" />
    <path
       transform="translate(602.85714,7.1428571)"
       style="fill:#ffff00;fill-opacity:1;stroke:none"
       d="M 38.60712,189.54073 15.465098,174.12752 10,201.39019 4.5349032,174.12752 -18.60712,189.54073 l 15.413208,-23.14202 -27.262665,-5.4651 27.2626645,-5.4651 -15.4132075,-23.14202 23.142022,15.41321 5.4650979,-27.26267 5.4650971,27.26267 23.142023,-15.41321 -15.413208,23.14202 27.262665,5.4651 -27.262664,5.4651 z"
       id="path3833"
       inkscape:connector-curvature="0" />
  </g>
</svg>
