<?xml version="1.0"?><svg width="181.82385" height="146.05708" xmlns="http://www.w3.org/2000/svg">
 <title>acorn</title>

 <g>
  <title>Layer 1</title>
  <g id="layer1" transform="matrix(0.536899,0,0,0.536899,-83.973691,-207.52292)">
   <path fill="#a05a2c" fill-rule="nonzero" stroke="#000000" stroke-width="7.45019" stroke-linecap="round" stroke-linejoin="round" stroke-miterlimit="4" id="path2383" d="m408.555878,465.755371c-30.563354,-53.061188 -104.311005,-75.175873 -159.024887,-47.689178c-38.426086,18.949188 -62.053299,57.600494 -76.738144,96.268646c-10.540665,27.90155 -17.043991,59.095154 -9.190292,88.586426c9.652451,22.925842 34.248398,33.822815 56.47554,41.006042c44.354462,14.06781 94.696564,15.965576 138.209839,-2.863586c53.17807,-25.561584 81.746277,-92.09375 62.673615,-148.056244c-3.004303,-9.506195 -7.267578,-18.657257 -12.40567,-27.252106z"/>
   <path fill="#000000" fill-opacity="0.313725" fill-rule="nonzero" stroke-width="4" stroke-linecap="round" stroke-linejoin="round" stroke-miterlimit="4" id="path3250" d="m323.03125,408.15625c8.321747,4.50238 16.060669,10.099792 22.90625,16.8125c6.691132,6.351715 12.726105,13.404083 17.75,21.09375c30.805695,44.924713 21.969086,111.064575 -18.875,146.9375c-33.938599,27.501587 -79.091858,38.292053 -121.9375,36.8125c-17.354721,-0.69397 -36.66626,-3.143433 -50.96875,-13.5c12.001404,14.110229 30.79129,22.013123 48.15625,27.625c44.354462,14.06781 94.705475,15.954163 138.21875,-2.875c53.17807,-25.561584 81.760162,-92.100037 62.6875,-148.0625c-3.004303,-9.506195 -7.268158,-18.655151 -12.40625,-27.25c-17.881592,-31.044312 -50.545868,-51.471558 -85.53125,-57.59375z"/>
   <path fill="#502d16" fill-rule="evenodd" stroke="#000000" stroke-width="7.450191" stroke-miterlimit="4" id="path3239" d="m412.483337,455.531769c15.069061,-23.397064 62.944946,-35.933044 72.866425,-23.698273c9.921478,12.234741 5.19339,33.743958 2.178894,36.300873c-3.014496,2.556915 -22.642609,-13.055206 -39.754333,-5.21698c-17.111786,7.838257 -26.767609,15.862549 -26.767609,15.862549l-8.523376,-23.248169z"/>
   <path fill="#000000" fill-opacity="0.313725" fill-rule="evenodd" stroke-width="4" stroke-miterlimit="4" id="path3263" d="m490.84375,445.21875c-0.481171,2.874329 -1.49292,5.092041 -2.46875,5.78125c-2.823486,1.994202 -23.422211,-6.239319 -39.90625,0.6875c-16.484009,6.926819 -25.53125,13.1875 -25.53125,13.1875l-8.4375,-12.09375c-0.708588,0.906036 -1.424438,1.807831 -2.03125,2.75l8.53125,23.25c0,0 9.669495,-8.036743 26.78125,-15.875c17.111755,-7.838226 36.735504,7.775635 39.75,5.21875c2.068451,-1.754486 4.91687,-12.424347 3.3125,-22.90625z"/>
   <path fill="#502d16" fill-rule="nonzero" stroke="#000000" stroke-width="7.450191" stroke-linecap="round" stroke-linejoin="round" stroke-miterlimit="4" id="path3201" d="m422.007446,458.241699c-30.123444,-51.67569 -95.276642,-80.456573 -151.237183,-62.771576c-12.409821,3.051514 -13.122284,18.917175 -12.960815,18.69458c21.888275,-9.448639 36.394501,11.326782 56.278595,35.624298c24.319122,29.716858 48.538025,71.781128 64.207855,110.574524c10.965424,27.146851 17.217102,52.592773 3.331543,65.47467c0.459747,0.290771 13.547791,8.091858 23.532684,-3.376709c49.039612,-52.806946 46.413086,-116.877655 16.847321,-164.219788z"/>
   <path fill="#000000" fill-opacity="0.313725" fill-rule="nonzero" stroke-width="4" stroke-linecap="round" stroke-linejoin="round" stroke-miterlimit="4" id="path3269" d="m420.004913,452.853577c3.952454,37.280396 -6.290283,68.793152 -31.03064,95.211365c-5.612091,5.992676 -10.754547,2.185547 -15.568024,0.778809c1.696777,3.860168 3.335297,7.719421 4.875,11.53125c10.965424,27.146851 17.229309,52.586853 3.34375,65.46875c0.459747,0.290771 13.546326,8.093567 23.53125,-3.375c44.917511,-48.368164 48.2276,-113.251129 14.848663,-169.615173z"/>
  </g>
 </g>
</svg>