<?xml version="1.0"?><svg width="30" height="30" xmlns="http://www.w3.org/2000/svg" xmlns:xlink="http://www.w3.org/1999/xlink">
 <title>Star</title>
 <defs>
  <linearGradient id="linearGradient3217">
   <stop stop-color="#fca72a" id="stop3219" offset="0"/>
   <stop stop-color="#fbfc3e" id="stop3221" offset="1"/>
  </linearGradient>
  <linearGradient y2="0.339943" x2="0.339503" y1="0.741699" x1="0.694064" id="linearGradient3223" xlink:href="#linearGradient3217"/>
 </defs>
 <metadata id="metadata7">image/svg+xmlicon_star2008-05-12Jean-Victor Balinfr-FRiconstarfavouritejean.victor.balin@gmail.com</metadata>
 <g>
  <title>Layer 1</title>
  <g id="layer1">
   <rect fill="#427bc3" y="12.5" x="16" height="0" width="6" id="rect3465"/>
   <path fill="#f57900" id="path2426" d="m15.005238,0.969094c-0.411691,-0.00959 -0.791182,0.221719 -0.971313,0.592027l-3.961578,8.045903l-8.833492,1.298161c-0.3967,0.05604 -0.727214,0.332358 -0.852666,0.712846c-0.125452,0.380486 -0.024092,0.799198 0.261489,1.080186l6.430744,6.247031l-1.528361,8.828003c-0.070625,0.400753 0.096013,0.806337 0.427984,1.041676c0.33198,0.235348 0.769848,0.258312 1.124627,0.058992l7.931067,-4.154432l7.902529,4.135431c0.353033,0.183821 0.779535,0.152843 1.102304,-0.08005c0.322779,-0.232887 0.486629,-0.627876 0.423487,-1.020857l-1.522123,-8.793505l6.420885,-6.28737c0.30319,-0.27992 0.414906,-0.711143 0.285774,-1.103062c-0.129122,-0.39192 -0.475288,-0.672278 -0.885481,-0.717159l-8.856531,-1.248562l-3.95522,-8.036403c-0.173971,-0.364025 -0.540669,-0.596621 -0.944123,-0.598857l0,0z"/>
   <path fill="url(#linearGradient3223)" id="path2428" d="m14.976829,2.788095l-3.889892,7.958976c-0.03567,0.076075 -0.097629,0.136692 -0.174463,0.170684c-0.020893,0.010414 -0.042789,0.018706 -0.065348,0.024749l-8.702797,1.248663l6.315899,6.141085c0.084394,0.084799 0.119372,0.206957 0.092656,0.323568l-1.481423,8.675728l7.800372,-4.104933c0.098848,-0.049671 0.215406,-0.049444 0.314058,0.00061l7.781343,4.091663l-1.500544,-8.697069c-0.019691,-0.110718 0.015265,-0.224127 0.093878,-0.304548l6.314938,-6.172523l-8.701088,-1.232713c-0.11272,-0.014599 -0.211243,-0.083267 -0.263948,-0.183973l-3.93364,-7.939966z"/>
  </g>
 </g>
</svg>